<svg id="visual" viewBox="0 0 900 600" width="900" height="600" xmlns="http://www.w3.org/2000/svg" xmlns:xlink="http://www.w3.org/1999/xlink" version="1.1"><rect x="0" y="0" width="900" height="600" fill="#001220"></rect><defs><linearGradient id="grad1_0" x1="33.3%" y1="0%" x2="100%" y2="100%"><stop offset="20%" stop-color="#001220" stop-opacity="1"></stop><stop offset="80%" stop-color="#001220" stop-opacity="1"></stop></linearGradient></defs><defs><linearGradient id="grad2_0" x1="0%" y1="0%" x2="66.7%" y2="100%"><stop offset="20%" stop-color="#001220" stop-opacity="1"></stop><stop offset="80%" stop-color="#001220" stop-opacity="1"></stop></linearGradient></defs><g transform="translate(900, 0)"><path d="M0 486.7C-54.6 462.6 -109.2 438.5 -174.1 420.4C-239 402.2 -314.2 390.2 -344.2 344.2C-374.1 298.2 -358.9 218.4 -375.1 155.4C-391.3 92.4 -439 46.2 -486.7 0L0 0Z" fill="#FBAE3C"></path></g><g transform="translate(0, 600)"><path d="M0 -486.7C59.9 -470.5 119.7 -454.3 179.5 -433.3C239.2 -412.3 298.9 -386.5 344.2 -344.2C389.4 -301.9 420.3 -243 441.6 -182.9C463 -122.8 474.9 -61.4 486.7 0L0 0Z" fill="#FBAE3C"></path></g></svg>